<?xml version="1.0" encoding="UTF-8" standalone="no"?>
<!-- Generator: Adobe Illustrator 23.0.3, SVG Export Plug-In . SVG Version: 6.00 Build 0)  -->

<svg
   version="1.1"
   id="Capa_1"
   x="0px"
   y="0px"
   viewBox="0 0 1200 1200"
   enable-background="new 0 0 1200 1200"
   xml:space="preserve"
   sodipodi:docname="pao.svg"
   inkscape:version="1.4.2 (f4327f4, 2025-05-13)"
   xmlns:inkscape="http://www.inkscape.org/namespaces/inkscape"
   xmlns:sodipodi="http://sodipodi.sourceforge.net/DTD/sodipodi-0.dtd"
   xmlns="http://www.w3.org/2000/svg"
   xmlns:svg="http://www.w3.org/2000/svg"><defs
   id="defs7" /><sodipodi:namedview
   id="namedview7"
   pagecolor="#ffffff"
   bordercolor="#000000"
   borderopacity="0.25"
   inkscape:showpageshadow="2"
   inkscape:pageopacity="0.0"
   inkscape:pagecheckerboard="0"
   inkscape:deskcolor="#d1d1d1"
   inkscape:zoom="0.6725"
   inkscape:cx="599.25651"
   inkscape:cy="600"
   inkscape:window-width="2560"
   inkscape:window-height="1009"
   inkscape:window-x="-8"
   inkscape:window-y="-8"
   inkscape:window-maximized="1"
   inkscape:current-layer="Capa_1" />
<g
   id="g7"
   transform="matrix(-1,0,0,1,1199.9994,0)">
	<path
   fill="#fdb930"
   d="M 1023.302,851.491 C 954.447,735.15 921.207,604.564 911.71,471.603 909.336,431.24 925.956,398 942.576,362.385 968.975,310.686 965.292,254.92 941.003,210.649 908.433,178.501 860.075,158.955 813.676,149.197 750.734,135.973 686.318,129.371 621.666,129.371 c -93.998,0 -188.471,13.937 -279.858,41.622 -10.235,3.102 -21.424,6.726 -33.053,11.047 -19.731,11.404 -37.644,25.71 -52.349,45.01 -61.732,83.1 -56.983,206.564 35.614,261.172 12.712,133.48 25.432,278.3 112.379,385.541 2.028,-0.626 4.328,-0.218 6.288,1.92 11.19,12.208 25.084,25.177 34.023,40.151 59.624,52.508 135.742,57.055 211.458,48.721 127.829,-29.859 243.22,-57.928 367.23,-90.797 3.988,-6.64 4.921,-14.24 -0.096,-22.267 z M 285.751,433.187 c -0.807,6.862 -9.141,7.931 -11.729,1.592 -4.914,-12.086 -8.167,-26.497 -10.517,-39.366 -1.544,-8.31 10.85,-11.943 12.821,-3.538 3.038,13.13 11.063,27.589 9.425,41.312 z m 2.421,-121.232 c -13.747,-17.807 -7.526,-41.146 -5.841,-61.66 0.523,-6.221 9.331,-6.268 9.735,0 1.305,19.826 3.253,39.532 4.701,59.333 0.357,5.106 -6.125,5.51 -8.595,2.327 z M 839.199,275.89 c 3.135,9.664 5.247,19.778 3.158,29.893 -0.854,4.131 -6.933,3.752 -8.002,0 -2.469,-8.856 -3.893,-17.927 -6.719,-26.688 -2.398,-7.408 9.212,-10.541 11.563,-3.205 z m -74.102,-85.854 c 9.236,13.605 15.315,31.863 7.764,47.604 -1.615,3.348 -7.028,2.397 -7.836,-1.021 -3.394,-14.174 -3.632,-26.924 -11.586,-39.745 -4.629,-7.479 6.838,-13.961 11.658,-6.838 z m -48.578,11.468 c 4.155,11.158 9.663,23.007 7.313,35.092 -0.594,3.063 -5.081,4.226 -7.123,1.876 -7.954,-9.164 -9.735,-22.034 -13.557,-33.288 -2.897,-8.548 10.304,-11.919 13.367,-3.68 z m -48.364,159.623 c 12.37,-29.963 34.712,-47.842 64.604,-51.712 28.066,-3.625 50.164,2.397 67.242,14.874 44.651,19.795 81.448,61.668 80.432,109.158 3.379,15.129 1.208,29.574 -6.236,45.8 -9.592,20.894 -24.789,41.005 -43.45,54.538 -35.543,25.737 -90.461,30.913 -121.92,-1.781 -6.861,-5.2 -13.249,-11.539 -19.041,-19.018 C 658.42,472.53 649.113,407.237 668.155,361.127 Z M 508.08,173.677 c 0.308,-8.358 12.821,-8.381 13.011,0 0.119,5.176 0.664,10.138 1.686,15.195 0.974,4.678 2.564,9.687 2.469,14.459 -0.071,4.583 -6.482,8.097 -9.758,4.06 -7.266,-8.95 -7.812,-22.649 -7.408,-33.714 z M 353.751,402.749 c 12.104,-42.366 41.362,-86.422 87.75,-91.432 15.375,-16.161 35.642,-26.576 59.764,-29.704 41.954,-5.39 80.228,13.51 107.794,53.231 40.03,57.624 49.337,148.559 20.798,202.694 -12.513,23.743 -31.008,39.056 -54.253,45.159 -1.756,0.712 -3.561,1.4 -5.413,2.018 -27.257,9.212 -55.986,9.117 -83.599,1.471 -61.495,-16.999 -104.018,-66.859 -128.259,-123.914 -1.154,-2.719 0.565,-5.209 2.695,-5.812 -7.837,-17.499 -13.313,-35.604 -7.277,-53.711 z m -10.234,-43.711 c 0.095,5.247 -7.052,5.627 -8.643,1.187 -4.321,-11.99 -5.413,-24.597 -7.289,-37.11 -0.784,-5.295 6.672,-7.669 8.215,-2.279 3.587,12.607 7.432,25.025 7.717,38.202 z M 324.5,282.729 c -7.479,-15.885 -5.485,-35.116 -6.198,-52.188 -0.308,-7.81 11.23,-7.526 11.943,0 1.591,16.359 3.514,33.027 4.439,49.409 0.31,5.271 -7.882,7.669 -10.184,2.779 z m 103.708,505.297 c -0.997,5.105 -9.046,4.939 -10.138,0 -5.104,-22.888 -16.928,-42.5 -25.809,-63.963 -2.801,-6.719 8.62,-11.397 11.683,-4.916 9.829,20.704 28.965,44.613 24.264,68.879 z m 6.316,-86.9 c -4.488,-6.387 5.983,-14.388 10.779,-8.333 13.011,16.501 20.062,37.608 24.622,57.908 0.973,4.44 -4.868,8.833 -8.262,4.82 -13.321,-15.765 -15.362,-37.656 -27.139,-54.395 z m 59.453,177.787 c -11.444,-13.675 -17.474,-30.961 -30.035,-44.115 -4.654,-4.867 2.516,-12.013 7.384,-7.384 12.322,11.753 27.091,29.869 30.486,46.94 0.807,4.156 -4.582,8.453 -7.835,4.559 z m 4.629,-157.748 c 9.569,16.549 22.509,37.087 18.686,57.007 -1.02,5.27 -9.117,4.939 -10.352,0 -4.44,-17.927 -11.586,-33.739 -20.87,-49.67 -4.701,-8.096 7.859,-15.409 12.536,-7.337 z m 53.137,173.371 c -21.416,-14.554 -35.97,-39.081 -50.786,-59.784 -5.414,-7.598 6.98,-14.555 12.418,-7.266 14.792,19.872 32.812,38.843 44.874,60.545 2.184,3.941 -2.422,9.307 -6.506,6.505 z m 98.344,42.88 c -6.411,-3.301 -11.824,-9.189 -17.238,-13.89 -5.816,-5.08 -11.634,-10.161 -17.355,-15.385 -7.195,-6.577 3.585,-17.356 10.731,-10.708 5.652,5.247 11.492,10.304 17.19,15.528 5.224,4.819 11.468,10.066 14.554,16.573 2.446,5.199 -2.565,10.612 -7.882,7.882 z M 852.044,751.913 c 13.937,79.777 -91.458,124.128 -156.561,108.244 -1.571,-0.383 -3.099,-0.854 -4.64,-1.297 -50.956,-1.053 -102.007,-38.044 -130.529,-83.346 -12.557,-20.928 -21.803,-43.501 -27.319,-66.746 -30.316,-14.254 -58.64,-32.635 -82.805,-55.163 -54.964,-20.627 -107.118,-56.548 -123.459,-113.218 -1.187,-4.131 5.057,-6.861 7.003,-2.944 18.163,36.683 46.727,64.486 82.769,83.67 33.098,17.641 71.585,27.163 108.362,33.335 36.708,6.15 74.269,7.907 111.426,6.055 42.381,-2.089 84.264,-10.352 123.368,-26.972 0.451,-0.238 0.926,-0.428 1.401,-0.594 2.589,-1.116 5.152,-2.256 7.693,-3.443 40.624,-18.852 85.926,-46.156 105.11,-88.277 1.923,-4.203 7.361,-0.878 6.79,2.873 -2.151,14.37 -10.395,27.634 -20.569,39.25 -15.948,29.278 -34.489,57.112 -60.342,78.777 24.774,25.478 46.318,55.584 52.302,89.796 z m 35.448,-20.847 c -0.617,4.63 -8.642,4.583 -9.307,0 -2.35,-16.43 -1.448,-33.026 -6.102,-49.1 -2.184,-7.526 9.378,-10.637 11.657,-3.229 5.224,17.165 6.198,34.593 3.752,52.329 z m 25.856,-80.369 c 0.713,-8.334 13.439,-8.572 13.154,0 -1.116,32.599 13.272,63.868 10.85,96.395 -0.403,5.462 -8.571,7.17 -9.971,1.33 -7.551,-31.317 -16.811,-65.269 -14.033,-97.725 z m 18.163,181.182 c -9.307,-10.59 -14.602,-25.049 -18.448,-38.417 -2.54,-8.833 11.184,-12.56 13.724,-3.776 3.632,12.632 10.209,24.717 12.37,37.728 0.689,4.085 -4.321,8.24 -7.646,4.465 z m 48.342,19.065 c -9.402,-13.249 -17.641,-27.352 -26.616,-40.909 -5.129,-7.716 7.763,-15.338 12.465,-7.29 8.405,14.413 16.833,28.944 23.315,44.329 2.35,5.627 -6.15,8.096 -9.164,3.87 z M 837.085,116.456 c 31.65,-0.712 60.426,8.595 87.422,24.93 24.835,15.053 50.144,37.205 56.864,66.67 0.879,3.775 -4.606,6.457 -6.457,2.73 -12.608,-25.404 -33.739,-45.207 -57.839,-59.832 -22.959,-13.937 -52.733,-26.64 -79.99,-27.352 -4.606,-0.118 -4.606,-7.051 0,-7.146 z"
   id="path1" />
	<path
   fill="#a02b37"
   d="m 830.984,787.385 c 3.497,-2.33 6.809,-4.845 9.948,-7.521 -7.082,19.238 -22.018,36.458 -38.867,46.815 -27.398,16.835 -63.227,23.862 -94.71,16.502 -37.039,-8.643 -65.555,-35.828 -85.642,-66.931 -19.35,-29.916 -39.769,-62.681 -50.049,-97.346 23.197,1.855 46.674,2.131 69.962,0.612 -3.622,11.82 -3.186,24.938 -0.585,36.64 18.994,83.1 116.34,118.714 189.943,71.229 z"
   id="path2" />
	<path
   fill="#d43941"
   d="m 840.932,779.864 c -3.139,2.676 -6.452,5.19 -9.948,7.521 -73.603,47.486 -170.949,11.871 -189.944,-71.229 -2.6,-11.702 -3.036,-24.82 0.585,-36.64 11.584,-0.756 23.125,-1.923 34.554,-3.628 3.538,4.962 8.667,8.69 13.178,13.059 6.577,6.362 12.703,13.082 18.591,20.063 12.488,14.839 24.17,30.153 32.575,47.77 1.543,3.229 6.387,0.879 5.603,-2.374 -4.677,-19.849 -12.322,-39.318 -24.787,-55.724 -5.936,-7.788 -14.293,-18.829 -23.743,-26.64 22.034,-4.558 43.521,-11.111 64.035,-19.896 28.587,24.289 62.278,45.871 78.494,80.844 7.095,15.299 6.388,31.712 0.807,46.874 z"
   id="path3" />
	<path
   fill="#f4e9e9"
   d="m 724.544,528.752 c 0.761,0.405 1.52,0.831 2.304,1.235 0.071,0.024 0.143,0.072 0.189,0.095 1.093,0.546 2.161,1.069 3.253,1.543 0.428,0.214 0.879,0.405 1.33,0.594 0.261,0.095 0.523,0.214 0.784,0.31 10.091,4.107 21.962,6.031 35.685,4.107 56.224,-7.883 74.316,-63.703 67.336,-115.509 -6.98,-51.903 -40.055,-101.05 -90.674,-101.05 -3.419,0 -6.934,0.213 -10.519,0.688 -32.338,4.179 -48.032,26.64 -55.511,44.732 -17.285,41.929 -8.453,103.615 20.11,140.462 6.243,8.073 14.744,16.644 25.713,22.793 z m 6.482,-140.557 c 31.531,1.305 55.06,84.453 13.772,93.119 -41.267,8.69 -64.772,-95.208 -13.772,-93.119 z M 539.136,573.58 c 27.304,-1.544 53.802,-11.041 73.603,-30.131 2.517,-3.466 4.867,-7.194 7.005,-11.254 26.757,-50.739 17.759,-136.356 -20.063,-190.822 -16.074,-23.149 -43.236,-49.242 -84.05,-49.242 -4.155,0 -8.453,0.261 -12.893,0.83 -55.819,7.195 -74.648,58.859 -75.479,109.384 -0.854,49.813 19.184,97.702 48.198,137.424 12.892,17.642 40.885,35.093 63.679,33.811 z m 12.132,-186.525 c 41.788,1.709 72.962,111.9 18.258,123.391 -54.679,11.516 -85.855,-126.145 -18.258,-123.391 z"
   id="path4" />
	<path
   fill="#031a2d"
   d="M 1099.73,810.391 C 1037.001,713.425 995.689,469.965 991.201,442.613 c 5.176,-6.672 21.036,-28.824 33.216,-64.249 13.321,-38.653 52.544,-176.386 -46.299,-238.047 C 933.814,112.681 885.284,94.067 840.125,84.593 664.237,47.601 481.464,67.119 303.012,109.38 171.975,140.412 89.23,252.812 81.941,262.024 c -40.055,50.739 -41.455,125.885 -9.71,181.183 14.364,25.025 36.635,44.375 53.16,67.881 2.541,3.609 5.034,7.361 6.245,11.586 4.582,16.122 2.184,37.966 3.68,54.823 6.149,69.02 17.119,136.047 35.021,203.002 8.571,32.101 17.57,63.891 30.177,94.662 24.55,59.951 59.167,114.394 98.628,165.584 16.24,21.06 33.644,41.93 52.448,60.758 11.943,11.943 42.096,37.562 59.167,32.909 0.072,0.023 0.143,0.023 0.214,0.047 0.071,0 0.118,0.023 0.19,0.023 1.092,0.119 2.422,0.19 3.965,0.19 39.389,0 215.846,-40.981 359.919,-76.097 165.417,-40.339 325.231,-82.007 333.708,-85.403 22.769,-9.094 33.026,-38.417 38.368,-60.189 7.882,-32.124 -0.664,-47.865 -22.651,-72.178 -8.736,-9.662 -17.783,-19.659 -24.74,-30.414 z M 83.009,280.14 c 6.055,-12.441 16.193,-21.036 23.838,-28.301 -22.745,49.599 -21.985,106.179 0.57,155.73 0.475,1.069 0.974,2.208 0.784,3.348 -0.238,1.307 -1.305,2.256 -2.327,3.087 -6.434,5.342 -19.731,15.504 -19.731,15.504 0,0 -46.179,-61.021 -3.134,-149.368 z m 21.583,178.405 c -3.561,-5.009 -7.1,-10.138 -10.494,-15.267 8.618,-3.87 15.409,-11.444 21.108,-19.255 19.564,36.897 44.897,63.322 56.769,74.6 -10.091,2.897 -20.632,4.037 -31.174,4.82 -10.116,-16.146 -24.1,-30.011 -36.209,-44.898 z m 45.112,62.563 c 0,-0.072 -0.071,-0.143 -0.095,-0.214 9.996,-0.403 20.799,-3.514 26.212,-9.26 0.071,-0.095 0.143,-0.19 0.213,-0.284 0.356,-0.167 0.713,-0.38 1.069,-0.57 0.594,10.803 1.828,28.42 3.989,44.874 3.917,29.726 8.927,59.357 14.958,88.775 -5.841,3.063 -11.373,7.028 -16.81,10.542 -4.511,2.944 -9.853,7.574 -15.385,10.637 -3.537,-23.15 -14.246,-101.597 -14.151,-144.5 z m 16.572,158.958 c 11.895,-4.203 23.671,-13.462 32.504,-22.627 6.268,29.038 13.534,57.862 21.796,86.377 -12.513,3.419 -24.789,9.996 -36.185,16.074 -6.884,-26.402 -13.248,-52.946 -18.115,-79.824 z m 45.634,170.19 c 9.141,-1.377 18.33,-4.06 24.835,-10.755 3.799,-3.919 -0.189,-9.023 -4.867,-8.382 -8.405,1.164 -16.287,5.009 -24.384,7.835 -0.878,-2.326 -1.756,-4.654 -2.635,-7.003 -6.008,-18.638 -11.255,-37.515 -16.335,-56.46 -0.357,-1.307 -0.689,-2.612 -1.046,-3.918 12.133,-3.941 26.307,-7.218 36.969,-14.72 5.39,17.878 11.135,35.638 17.309,53.232 9.33,26.568 19.16,51.237 29.584,74.22 -12.537,5.888 -24.432,12.56 -37.87,15.956 -7.646,-16.337 -14.841,-33.029 -21.56,-50.005 z m 85.048,157.249 c -14.816,-20.752 -28.872,-42.001 -41.693,-63.963 -5.462,-10.138 -10.755,-20.395 -15.836,-30.843 13.605,-3.134 25.808,-9.212 36.303,-18.875 17.379,36.92 36.421,69.305 57.552,97.797 -12.014,5.628 -22.936,14.176 -36.326,15.884 z m 109.075,115.629 c -1.258,-1.354 -65.08,-57.814 -93.809,-94.735 -2.374,-3.039 -4.606,-6.172 -6.885,-9.283 12.916,-2.589 25.761,-9.355 34.642,-18.734 16.573,21.274 34.38,40.292 53.635,57.363 7.835,6.933 17.119,14.577 28.539,17.545 0.759,0.19 1.52,0.357 2.279,0.498 z m 250.986,-74.815 c -2.327,9.64 -6.529,18.852 -8.784,28.421 -0.024,0.143 -0.024,0.261 -0.049,0.403 -35.543,8.286 -67.43,15.504 -95.446,21.63 1.472,-4.654 2.943,-9.331 4.155,-14.103 1.899,-7.431 -8.904,-10.257 -11.373,-3.134 -2.279,6.6 -4.084,13.224 -5.555,20.015 -61.138,13.154 -101.976,20.514 -120.092,21.583 l 16.359,-46.441 c 8.048,-0.261 15.86,-2.042 22.627,-3.586 38.843,-8.904 77.711,-17.735 116.578,-26.568 28.515,-6.482 57.196,-12.987 85.996,-19.564 -2.089,6.885 -2.778,14.53 -4.416,21.344 z m 157.487,-11.206 c -13.961,3.442 -28.112,6.908 -42.405,10.399 -39.723,9.687 -76.525,18.496 -110.215,26.402 3.276,-7.052 5.413,-15.172 7.526,-22.177 2.469,-8.143 6.077,-18.827 4.296,-27.565 52.639,-12.037 105.633,-24.266 158.699,-36.802 -0.119,2.089 -0.166,4.226 -0.618,6.221 -1.4,6.362 -4.178,12.393 -6.908,18.281 -3.228,6.911 -10.517,16.859 -10.375,25.241 z m 168.243,-46.608 c -1.828,2.066 -3.632,3.633 -4.914,5.58 -14.864,3.822 -30.653,7.836 -47.225,12.037 2.232,-4.155 3.443,-8.879 3.752,-13.984 0.403,-6.672 -9.711,-7.788 -11.445,-1.543 -1.732,6.197 -3.181,12.964 -7.905,17.665 -0.641,0.641 -1.021,1.353 -1.235,2.112 -25.927,6.529 -53.493,13.416 -82.008,20.491 0.784,-2.422 1.496,-4.844 2.445,-6.98 2.635,-6.008 5.509,-11.919 7.836,-18.069 2.137,-5.674 5.841,-16.453 3.347,-23.529 54.158,-12.845 108.386,-26.047 162.378,-39.699 -2.991,10.186 -9.117,20.752 -13.723,28.919 -3.325,5.865 -6.863,11.92 -11.303,17 z m 121.754,-27.945 c -0.641,0.238 -2.374,0.784 -5.129,1.567 0.427,-3.537 0.641,-7.146 1.069,-10.614 0.735,-6.077 1.163,-12.085 0.095,-18.139 -0.784,-4.417 -6.529,-3.253 -7.86,0 -3.513,8.595 -6.576,21.654 -5.08,32.029 -17.76,4.82 -48.388,12.893 -87.517,22.984 2.755,-4.583 4.939,-8.951 6.173,-11.278 5.983,-11.112 13.059,-24.384 13.273,-37.513 28.088,-7.147 56.104,-14.388 83.979,-21.821 14.174,-3.75 24.976,-7.953 32.717,-12.749 -6.15,20.632 -17.664,49.907 -31.72,55.534 z M 1032.3,927.255 c -66.67,16.548 -133.554,32.647 -200.462,48.483 -86.211,20.395 -172.563,40.03 -258.941,59.643 -38.866,8.832 -77.734,17.665 -116.577,26.568 -9.973,2.279 -21.274,4.867 -31.269,2.279 -8.975,-2.351 -16.692,-8.714 -23.838,-15.029 C 338.365,993.498 291.117,916.309 252.558,806.308 223.971,724.704 203.742,639.871 192.441,554.159 c -3.348,-25.405 -4.416,-53.825 -4.416,-54.11 -0.072,-1.615 -0.808,-3.134 -2.043,-4.179 -0.379,-0.308 -38.25,-32.409 -63.18,-82.079 -31.269,-62.301 -28.966,-122.822 6.79,-180.043 0.546,-0.569 0.974,-1.258 1.259,-1.97 1.781,-2.802 3.609,-5.58 5.555,-8.359 C 177.03,165.391 248.568,137.85 306.335,120.327 409.238,89.129 515.654,73.434 621.5,73.434 c 72.819,0 145.355,7.432 216.274,22.342 43.877,9.236 94.022,22.793 133.27,53.54 19.208,15.029 38.463,31.507 44.636,53.138 40.885,143.217 -34.142,233.963 -34.903,234.865 -1.068,1.282 -1.543,2.944 -1.282,4.606 13.914,88.49 33.383,177.288 61.328,262.407 9.687,29.465 20.799,58.598 35.188,86.116 7.502,14.364 15.884,28.254 25.286,41.455 8.666,12.157 20.609,22.746 26.117,36.778 13.701,34.901 -75.265,53.658 -95.114,58.574 z m -1.329,-142.601 c -26.663,-41.194 -59.713,-134.694 -74.6,-217.058 -13.035,-72.155 -9.617,-136.784 -9.617,-136.784 0,0 6.696,-3.893 8.453,-7.431 42.619,-41.668 50.05,-113.705 30.557,-167.245 -1.638,-4.939 -3.656,-9.687 -6.054,-14.223 -0.214,-0.427 -0.405,-0.878 -0.618,-1.282 -1.068,-2.16 -2.232,-4.296 -3.419,-6.362 C 941.91,175.338 870.231,149.388 816.026,138.015 739.027,121.823 594.456,109.263 433.432,130.417 152.101,167.408 135.078,335.888 153.146,385.06 c 7.765,21.155 18.971,40.791 32.979,58.432 6.387,8.025 39.794,41.859 42.785,44.731 0.499,10.447 -1.899,48.507 0.807,69.045 10.139,76.903 28.278,152.999 53.945,226.199 34.878,99.553 77.829,169.572 135.097,220.334 7.005,6.197 15.338,13.035 25.619,15.718 3.609,0.949 7.265,1.305 10.874,1.305 7.835,0 15.505,-1.756 22.057,-3.252 210.576,-48.246 373.761,-86.14 556.63,-134.766 25.809,-6.862 38.82,-15.005 42.191,-26.378 4.273,-14.413 -8.476,-28.516 -23.245,-44.826 -7.764,-8.594 -15.765,-17.45 -21.914,-26.948 z m 34.189,68.522 c -1.377,4.701 -8.453,11.729 -34.142,18.567 -182.702,48.579 -345.793,86.473 -556.25,134.671 -54.229,12.442 -103.946,-79.657 -124.27,-116.601 -46.584,-84.62 -75.004,-178.975 -96.182,-272.76 -4.44,-19.588 -6.791,-39.698 -9.901,-59.546 -3.11,-19.897 -5.889,-54.395 -0.689,-74.221 0.689,-2.588 -50.288,-59.096 -61.732,-80.465 -4.132,-7.764 -7.859,-15.907 -10.899,-24.337 -5.626,-19.16 -7.265,-37.727 -4.891,-55.653 2.185,-11.8 5.817,-23.576 9.902,-34.593 0.641,-1.425 1.33,-2.873 2.018,-4.298 4.106,-7.384 8.571,-14.388 12.868,-20.752 0.308,-0.451 0.499,-0.902 0.594,-1.376 37.917,-52.046 103.851,-76.761 150.221,-90.817 91.387,-27.685 185.86,-41.622 279.858,-41.622 64.652,0 129.068,6.601 192.01,19.826 83.314,17.522 172.968,66.575 166.13,163.541 -1.995,28.611 -10.874,57.031 -25.073,81.913 -5.247,9.166 -17.95,29.465 -17.95,29.465 0,0 0.428,108.244 21.226,201.412 19.042,85.261 57.505,156.323 63.347,165.345 6.648,10.258 15.361,19.897 23.03,28.398 11.944,13.2 23.221,25.665 20.775,33.903 z M 880.654,544.09 c 0.57,-3.75 -4.867,-7.075 -6.79,-2.873 -19.185,42.121 -64.486,69.425 -105.11,88.277 -2.541,1.187 -5.104,2.327 -7.693,3.443 -0.474,0.166 -0.95,0.356 -1.401,0.594 -39.104,16.62 -80.987,24.883 -123.368,26.972 -37.157,1.851 -74.718,0.095 -111.426,-6.055 -36.777,-6.172 -75.264,-15.694 -108.362,-33.335 -36.042,-19.183 -64.606,-46.986 -82.769,-83.67 -1.947,-3.917 -8.191,-1.187 -7.003,2.944 21.915,76.002 108.244,114.702 179.378,129.21 16.382,3.324 33.145,5.983 50.145,7.835 0.308,17.143 7.1,33.715 14.246,49.101 8.904,19.208 19.683,37.656 30.462,55.843 21.369,36.065 52.733,67.596 94.521,77.781 65.103,15.884 170.498,-28.467 156.561,-108.244 -7.526,-43.022 -39.651,-79.563 -71.87,-108.553 19.54,-10.161 37.989,-22.556 54.988,-36.469 18.898,-15.481 41.692,-37.42 45.491,-62.801 z m -40.529,188.899 c 16.097,34.712 -7.931,75.171 -38.061,93.69 -27.398,16.835 -63.227,23.862 -94.71,16.502 -37.039,-8.643 -65.555,-35.828 -85.642,-66.931 -19.35,-29.916 -39.769,-62.681 -50.049,-97.346 34.736,2.778 70.112,2.113 104.515,-3.015 3.538,4.962 8.667,8.69 13.178,13.059 6.577,6.362 12.703,13.082 18.591,20.063 12.488,14.839 24.17,30.153 32.575,47.77 1.543,3.229 6.387,0.879 5.603,-2.374 -4.677,-19.849 -12.322,-39.318 -24.787,-55.724 -5.936,-7.788 -14.293,-18.829 -23.743,-26.64 22.034,-4.558 43.521,-11.111 64.035,-19.896 28.587,24.287 62.279,45.869 78.495,80.842 z M 708.826,532.005 c 31.459,32.694 86.378,27.518 121.92,1.781 18.662,-13.533 33.858,-33.644 43.45,-54.538 10.304,-22.461 10.565,-41.501 -0.119,-63.678 -2.065,-4.273 -8.974,-0.379 -6.41,3.752 10.517,17.071 0.261,43.165 -8.358,59.215 -9.189,17.119 -21.559,31.958 -37.8,42.856 -0.284,0.19 -0.569,0.38 -0.854,0.547 23.672,-25.738 31.032,-65.816 26.117,-102.332 -8.761,-64.866 -41.598,-119.546 -114.014,-110.191 -29.892,3.87 -52.234,21.749 -64.604,51.712 -19.042,46.11 -9.735,111.403 21.631,151.861 5.792,7.477 12.18,13.816 19.041,19.015 z M 678.721,365.496 c 7.479,-18.092 23.173,-40.553 55.511,-44.732 3.585,-0.474 7.1,-0.688 10.519,-0.688 50.62,0 83.694,49.147 90.674,101.05 6.98,51.807 -11.112,107.626 -67.336,115.509 -13.723,1.923 -25.594,0 -35.685,-4.107 -0.261,-0.095 -0.523,-0.214 -0.784,-0.31 -0.451,-0.189 -0.902,-0.379 -1.33,-0.594 -1.092,-0.474 -2.16,-0.997 -3.253,-1.543 -0.046,-0.023 -0.118,-0.071 -0.189,-0.095 -0.784,-0.403 -1.543,-0.83 -2.304,-1.235 -10.969,-6.149 -19.47,-14.72 -25.714,-22.793 -28.562,-36.847 -37.395,-98.532 -20.109,-140.462 z m 52.305,22.699 c 31.531,1.305 55.06,84.453 13.772,93.119 -41.267,8.69 -64.772,-95.208 -13.772,-93.119 z M 486.593,586.186 c 27.613,7.646 56.342,7.741 83.599,-1.471 1.851,-0.618 3.656,-1.307 5.413,-2.018 23.244,-6.103 41.74,-21.416 54.253,-45.159 28.539,-54.135 19.232,-145.07 -20.798,-202.694 -27.566,-39.722 -65.84,-58.621 -107.794,-53.231 -24.17,3.134 -44.47,13.581 -59.856,29.797 -0.641,0.143 -1.235,0.5 -1.733,1.093 -1.353,1.638 -2.612,3.395 -3.775,5.223 -42.216,65.602 -33.05,152.952 13.533,214.067 11.255,14.792 24.005,26.616 37.918,35.4 -0.784,-0.237 -1.567,-0.451 -2.327,-0.712 -52.9,-17.19 -92.384,-61.732 -119.902,-108.196 -2.66,-4.488 -8.714,-0.546 -6.79,3.988 24.241,57.054 66.764,106.914 128.259,123.913 z m -11.137,-46.417 c -29.013,-39.722 -49.052,-87.611 -48.198,-137.424 0.831,-50.526 19.66,-102.19 75.479,-109.384 4.44,-0.569 8.738,-0.83 12.893,-0.83 40.814,0 67.976,26.093 84.05,49.242 37.822,54.466 46.82,140.083 20.063,190.822 -2.138,4.06 -4.488,7.787 -7.005,11.254 -19.801,19.089 -46.299,28.587 -73.603,30.131 -22.793,1.282 -50.786,-16.169 -63.679,-33.811 z m 75.812,-152.714 c 41.788,1.709 72.962,111.9 18.258,123.391 -54.679,11.516 -85.855,-126.145 -18.258,-123.391 z"
   id="path5" />
	<path
   fill="#c1722b"
   d="m 1127.415,868.681 c -5.508,-14.032 -17.451,-24.622 -26.117,-36.778 -9.402,-13.201 -17.784,-27.091 -25.286,-41.455 -14.388,-27.518 -25.5,-56.65 -35.188,-86.116 -27.945,-85.119 -47.414,-173.917 -61.328,-262.407 -0.261,-1.662 0.214,-3.324 1.282,-4.606 0.562,-0.667 41.738,-50.49 46.609,-134.326 -5.413,-5.698 -9.832,-13.832 -13.583,-21.333 -9.707,-23.298 -19.42,-48.179 -33.022,-70.758 -1.389,1.934 -4.548,2.544 -5.868,-0.115 -12.608,-25.404 -33.739,-45.207 -57.839,-59.832 -22.959,-13.937 -52.733,-26.64 -79.99,-27.352 -4.606,-0.119 -4.606,-7.052 0,-7.147 7.603,-0.172 15.036,0.25 22.323,1.194 -80.26,-20.313 -164.656,-10.223 -246.859,-33.057 -7.361,-2.008 -13.93,-5.76 -19.516,-10.736 -96.424,2.56 -193.016,18.068 -286.696,46.469 -57.767,17.523 -129.305,45.064 -169.929,103.092 -1.947,2.779 -3.775,5.557 -5.555,8.359 -0.285,0.712 -0.713,1.4 -1.259,1.97 -35.756,57.221 -38.059,117.742 -6.79,180.043 24.93,49.67 62.801,81.771 63.18,82.079 1.235,1.046 1.971,2.564 2.043,4.179 0,0.285 1.068,28.705 4.416,54.11 11.301,85.712 31.53,170.546 60.117,252.149 38.559,110.001 85.807,187.19 148.655,242.891 7.146,6.316 14.863,12.678 23.838,15.029 9.996,2.588 21.297,0 31.269,-2.279 38.843,-8.904 77.711,-17.737 116.577,-26.568 86.378,-19.612 172.73,-39.248 258.941,-59.643 66.908,-15.836 133.792,-31.935 200.462,-48.483 19.847,-4.915 108.813,-23.672 95.113,-58.573 z m -51.285,-12.252 c -3.371,11.373 -16.382,19.516 -42.191,26.378 -182.868,48.625 -346.053,86.519 -556.63,134.766 -6.552,1.496 -14.223,3.252 -22.057,3.252 -3.609,0 -7.265,-0.356 -10.874,-1.305 -10.281,-2.683 -18.614,-9.522 -25.619,-15.718 C 361.49,953.039 318.54,883.021 283.661,783.467 257.995,710.267 239.856,634.17 229.716,557.268 227.01,536.731 229.408,498.67 228.909,488.223 225.918,485.35 192.511,451.517 186.124,443.492 172.116,425.851 160.91,406.215 153.145,385.06 135.077,335.888 152.1,167.409 433.431,130.417 c 161.024,-21.154 305.595,-8.594 382.594,7.598 54.205,11.373 125.884,37.323 159.647,96.254 1.187,2.066 2.351,4.203 3.419,6.362 0.213,0.405 0.403,0.856 0.618,1.282 2.398,4.535 4.416,9.284 6.054,14.223 19.493,53.54 12.062,125.577 -30.557,167.245 -1.756,3.538 -8.453,7.431 -8.453,7.431 0,0 -3.419,64.629 9.617,136.784 14.887,82.364 47.937,175.864 74.6,217.058 6.149,9.497 14.151,18.353 21.915,26.948 14.769,16.311 27.518,30.415 23.245,44.827 z m -66.893,117.07 c 26.102,-5.218 52.116,-10.581 78.169,-15.933 -0.257,3.39 -0.255,6.736 0.193,9.837 -17.76,4.82 -48.388,12.893 -87.517,22.984 2.755,-4.583 4.939,-8.951 6.173,-11.278 0.976,-1.815 1.981,-3.691 2.982,-5.61 z m 107.438,-21.918 c -3.762,5.27 -7.846,9.247 -12.172,10.979 -0.641,0.238 -2.374,0.784 -5.129,1.567 0.37,-3.065 0.598,-6.171 0.926,-9.206 5.454,-1.117 10.913,-2.228 16.375,-3.34 z m -272.769,50.889 c 27.449,-3.871 54.508,-8.266 81.312,-13.016 -1.053,0.679 -1.904,1.707 -2.301,3.141 -1.732,6.197 -3.181,12.964 -7.905,17.665 -0.641,0.641 -1.021,1.353 -1.235,2.112 -25.927,6.529 -53.493,13.416 -82.008,20.491 0.784,-2.422 1.496,-4.844 2.445,-6.98 2.635,-6.008 5.509,-11.919 7.836,-18.069 0.557,-1.483 1.222,-3.321 1.856,-5.344 z m 148.193,-25.575 c -2.773,4.763 -5.762,9.505 -9.35,13.61 -1.828,2.066 -3.632,3.633 -4.914,5.58 -14.864,3.822 -30.653,7.836 -47.225,12.037 2.232,-4.155 3.443,-8.879 3.752,-13.984 0.19,-3.145 -1.962,-5.037 -4.467,-5.524 20.856,-3.732 41.571,-7.663 62.204,-11.719 z m -3.082,-129.82 c 2.35,5.626 -6.15,8.096 -9.164,3.87 -9.402,-13.249 -17.641,-27.352 -26.616,-40.909 -5.129,-7.716 7.763,-15.338 12.465,-7.29 8.405,14.412 16.833,28.943 23.315,44.329 z m -49.86,-19.66 c 0.689,4.084 -4.321,8.239 -7.646,4.465 -9.307,-10.59 -14.602,-25.049 -18.448,-38.417 -2.54,-8.833 11.184,-12.56 13.724,-3.776 3.632,12.632 10.209,24.717 12.37,37.728 z M 927.38,748.422 c -7.551,-31.317 -16.81,-65.269 -14.032,-97.725 0.713,-8.334 13.439,-8.572 13.154,0 -1.116,32.599 13.272,63.868 10.85,96.395 -0.404,5.462 -8.571,7.171 -9.972,1.33 z m -43.64,-69.685 c 5.224,17.165 6.198,34.593 3.752,52.328 -0.617,4.63 -8.642,4.583 -9.307,0 -2.35,-16.43 -1.448,-33.026 -6.102,-49.1 -2.184,-7.525 9.378,-10.636 11.657,-3.228 z M 827.636,279.095 c -2.398,-7.408 9.212,-10.542 11.563,-3.206 3.135,9.664 5.247,19.778 3.158,29.893 -0.854,4.131 -6.933,3.752 -8.002,0 -2.469,-8.855 -3.893,-17.926 -6.719,-26.687 z m 0.473,725.525 c -1.027,2.447 -2.119,4.867 -3.226,7.254 -3.23,6.91 -10.519,16.858 -10.376,25.24 -13.961,3.442 -28.112,6.908 -42.405,10.399 -39.723,9.687 -76.525,18.496 -110.215,26.402 3.276,-7.052 5.413,-15.172 7.526,-22.177 1.324,-4.367 2.953,-9.466 3.924,-14.603 47.899,-12.997 96.139,-24.806 145.774,-31.316 3.012,-0.384 5.997,-0.802 8.998,-1.199 z m -74.67,-807.746 c -4.629,-7.479 6.838,-13.961 11.658,-6.838 9.236,13.605 15.315,31.863 7.764,47.604 -1.615,3.348 -7.028,2.397 -7.836,-1.021 -3.394,-14.174 -3.632,-26.924 -11.586,-39.745 z m -50.287,8.31 c -2.897,-8.548 10.304,-11.919 13.367,-3.68 4.155,11.158 9.663,23.007 7.313,35.092 -0.594,3.063 -5.081,4.226 -7.123,1.876 -7.954,-9.165 -9.734,-22.035 -13.557,-33.288 z m -45.183,724.35 c 2.446,5.2 -2.564,10.612 -7.882,7.882 -6.411,-3.301 -11.824,-9.189 -17.238,-13.89 -5.816,-5.08 -11.634,-10.161 -17.355,-15.385 -7.195,-6.577 3.585,-17.356 10.731,-10.708 5.652,5.247 11.492,10.304 17.19,15.528 5.224,4.82 11.468,10.067 14.554,16.573 z m -227.522,163.587 c 78.138,-8.551 152.778,-31.153 227.988,-51.905 -0.425,2.417 -0.865,4.812 -1.416,7.103 -2.327,9.64 -6.529,18.852 -8.784,28.421 -0.024,0.143 -0.024,0.261 -0.049,0.403 -35.543,8.286 -67.43,15.504 -95.446,21.63 1.472,-4.654 2.943,-9.331 4.155,-14.103 1.899,-7.431 -8.904,-10.257 -11.373,-3.134 -2.279,6.6 -4.084,13.224 -5.555,20.015 -61.138,13.154 -101.976,20.514 -120.092,21.583 z m 127.801,-205.09 c 2.184,3.941 -2.422,9.307 -6.505,6.505 -21.416,-14.554 -35.97,-39.081 -50.786,-59.784 -5.414,-7.598 6.98,-14.555 12.418,-7.266 14.791,19.873 32.812,38.844 44.873,60.545 z m -42.76,-680.64 c -7.265,-8.95 -7.812,-22.65 -7.408,-33.714 0.308,-8.358 12.821,-8.381 13.011,0 0.119,5.176 0.664,10.138 1.686,15.195 0.974,4.678 2.564,9.687 2.469,14.459 -0.071,4.583 -6.482,8.097 -9.758,4.06 z m -8.548,570.782 c -4.44,-17.927 -11.586,-33.739 -20.87,-49.67 -4.701,-8.097 7.859,-15.41 12.536,-7.337 9.569,16.549 22.509,37.087 18.686,57.007 -1.02,5.27 -9.117,4.938 -10.352,0 z m -5.129,96.182 c 0.808,4.155 -4.582,8.453 -7.835,4.558 -11.444,-13.675 -17.474,-30.961 -30.035,-44.115 -4.654,-4.867 2.516,-12.013 7.384,-7.384 12.323,11.754 27.092,29.87 30.486,46.941 z M 461.663,755.522 c -13.321,-15.766 -15.362,-37.657 -27.139,-54.396 -4.488,-6.387 5.983,-14.388 10.779,-8.333 13.011,16.501 20.062,37.608 24.622,57.908 0.973,4.44 -4.868,8.833 -8.262,4.821 z m -9.356,178.167 c 1.046,4.298 -4.463,8.002 -7.716,4.487 -15.433,-16.666 -28.918,-35.377 -43.615,-52.781 -5.627,-6.672 3.68,-16.287 9.71,-9.711 15.409,16.811 35.995,35.046 41.621,58.005 z M 418.07,788.026 c -5.104,-22.888 -16.928,-42.5 -25.809,-63.963 -2.801,-6.719 8.62,-11.397 11.683,-4.916 9.83,20.704 28.966,44.613 24.265,68.879 -0.998,5.104 -9.047,4.938 -10.139,0 z m 0.824,302.015 -12.862,33.093 c -1.258,-1.354 -65.08,-57.814 -93.809,-94.735 -2.374,-3.039 -4.606,-6.172 -6.885,-9.283 6.373,-1.278 12.725,-3.58 18.596,-6.703 26.627,30.208 57.929,56.567 94.96,77.628 z M 335.801,320.836 c 3.586,12.608 7.431,25.025 7.716,38.202 0.095,5.247 -7.052,5.627 -8.643,1.187 -4.321,-11.99 -5.413,-24.597 -7.289,-37.11 -0.783,-5.295 6.673,-7.669 8.216,-2.279 z M 324.5,282.729 c -7.479,-15.885 -5.485,-35.116 -6.198,-52.188 -0.308,-7.81 11.23,-7.526 11.943,0 1.591,16.359 3.514,33.027 4.439,49.409 0.31,5.271 -7.882,7.669 -10.184,2.779 z m -69.485,624.749 c 16.554,33.731 36.18,65.442 59.656,94.042 -5.604,2.835 -11.381,5.178 -17.713,5.986 -14.816,-20.752 -28.872,-42.001 -41.693,-63.963 -5.462,-10.138 -10.755,-20.395 -15.836,-30.843 5.429,-1.252 10.622,-2.994 15.586,-5.222 z m 51.891,-238.357 c 1.282,5.367 -6.719,9.212 -9.212,3.894 -6.364,-13.51 -8.334,-27.352 -9.687,-42.096 -0.784,-8.477 12.488,-8.429 13.224,0 1.14,12.773 2.683,25.714 5.675,38.202 z M 288.172,311.955 c -13.747,-17.807 -7.526,-41.146 -5.841,-61.66 0.523,-6.221 9.331,-6.268 9.735,0 1.305,19.826 3.253,39.532 4.701,59.333 0.357,5.106 -6.125,5.51 -8.595,2.327 z m -11.847,79.919 c 3.039,13.13 11.063,27.59 9.425,41.313 -0.807,6.862 -9.141,7.931 -11.729,1.592 -4.914,-12.086 -8.167,-26.497 -10.517,-39.366 -1.544,-8.31 10.85,-11.944 12.821,-3.539 z m -47.76,453.537 c 6.212,16.819 13.005,33.334 20.446,49.439 -5.028,2.151 -10.158,4.048 -15.542,5.408 -7.645,-16.335 -14.839,-33.027 -21.559,-50.003 5.762,-0.867 11.54,-2.26 16.655,-4.844 z m -24.794,-78.945 c 5.975,22.434 12.688,44.664 20.31,66.45 -5.586,1.703 -11.038,4.102 -16.588,6.038 -0.878,-2.326 -1.756,-4.654 -2.635,-7.003 -6.008,-18.638 -11.255,-37.515 -16.335,-56.46 -0.357,-1.307 -0.689,-2.612 -1.046,-3.918 5.204,-1.692 10.778,-3.276 16.294,-5.107 z m -21.317,-95.022 c 5.057,26.74 10.807,53.68 17.535,80.414 -5.332,2.568 -10.553,5.342 -15.596,8.032 -6.885,-26.402 -13.249,-52.946 -18.116,-79.824 5.516,-1.949 10.993,-5.012 16.177,-8.622 z m -4.401,-24.143 c 0.443,2.518 0.892,5.041 1.345,7.565 -0.052,0.034 -0.105,0.071 -0.158,0.104 -4.511,2.944 -9.853,7.574 -15.385,10.637 -3.537,-23.149 -14.246,-101.596 -14.151,-144.499 0,-0.072 -0.071,-0.143 -0.095,-0.214 1.491,-0.06 2.998,-0.201 4.504,-0.38 18.585,38.44 15.105,82.611 23.94,126.787 z M 107.422,433.419 c 11.339,23.825 24.342,47.146 37.135,69.726 -1.252,0.105 -2.504,0.205 -3.757,0.298 -10.115,-16.146 -24.099,-30.011 -36.208,-44.898 -3.561,-5.009 -7.1,-10.138 -10.494,-15.267 5.018,-2.253 9.401,-5.78 13.324,-9.859 z m -6.912,-15.083 c -6.549,5.196 -14.366,11.171 -14.366,11.171 0,0 -38.108,-50.381 -12.79,-125.858 -0.705,38.738 10.717,77.264 27.156,114.687 z"
   id="path6" />
	<path
   fill="#eb8928"
   d="m 612.549,84.593 c -7.361,-2.008 -13.93,-5.76 -19.516,-10.736 9.491,-0.252 18.982,-0.423 28.467,-0.423 72.819,0 145.355,7.432 216.274,22.342 43.877,9.236 94.022,22.793 133.27,53.54 19.208,15.029 38.463,31.507 44.636,53.138 10.646,37.294 13.423,71.02 11.707,100.539 -5.413,-5.698 -9.832,-13.832 -13.583,-21.333 -9.707,-23.298 -19.42,-48.179 -33.022,-70.758 0.56,-0.777 0.841,-1.762 0.589,-2.845 -6.719,-29.465 -32.029,-51.618 -56.864,-66.67 C 903.996,128.976 882.453,120.636 859.408,117.651 779.148,97.338 694.752,107.427 612.549,84.593 Z m 523.674,822.433 c -7.741,4.796 -18.543,8.999 -32.717,12.749 -27.875,7.432 -55.891,14.674 -83.979,21.821 -0.18,10.986 -5.162,22.067 -10.29,31.903 26.102,-5.218 52.116,-10.581 78.169,-15.933 0.605,-7.951 2.81,-16.166 5.273,-22.192 1.331,-3.253 7.077,-4.417 7.86,0 1.068,6.054 0.64,12.062 -0.095,18.139 -0.057,0.463 -0.093,0.941 -0.143,1.407 5.453,-1.116 10.913,-2.228 16.374,-3.34 8.462,-11.853 15.291,-30.272 19.548,-44.554 z M 365.124,458.284 c 27.518,46.465 67.002,91.006 119.902,108.196 0.759,0.261 1.543,0.475 2.327,0.712 -13.913,-8.784 -26.663,-20.608 -37.918,-35.4 -46.583,-61.115 -55.748,-148.465 -13.533,-214.067 1.163,-1.828 2.422,-3.585 3.775,-5.223 0.499,-0.594 1.092,-0.951 1.733,-1.093 0.03,-0.031 0.061,-0.061 0.092,-0.093 -46.388,5.011 -75.646,49.066 -87.75,91.432 -6.035,18.107 -0.56,36.213 7.278,53.711 1.423,-0.403 3.028,0.027 4.094,1.825 z M 800.001,324.289 c 26.987,19.717 41.406,55.591 46.772,95.317 4.914,36.516 -2.445,76.594 -26.117,102.332 0.285,-0.167 0.57,-0.357 0.854,-0.547 16.241,-10.898 28.611,-25.737 37.8,-42.856 8.618,-16.05 18.875,-42.144 8.358,-59.215 -2.564,-4.131 4.345,-8.025 6.41,-3.752 2.966,6.155 5.057,12.065 6.355,17.878 1.016,-47.489 -35.781,-89.361 -80.432,-109.157 z m 35.161,282.602 c -16.999,13.913 -35.448,26.307 -54.988,36.469 6.599,5.937 13.19,12.196 19.569,18.758 25.853,-21.665 44.394,-49.5 60.342,-78.777 -7.796,8.899 -16.724,16.834 -24.923,23.55 z m 209.223,212.381 c -7.669,-8.5 -16.382,-18.14 -23.03,-28.398 -5.842,-9.022 -44.305,-80.084 -63.347,-165.345 -20.798,-93.168 -21.226,-201.412 -21.226,-201.412 0,0 12.703,-20.3 17.95,-29.465 14.198,-24.883 23.078,-53.302 25.073,-81.913 3.029,-42.962 -12.892,-76.513 -38.803,-102.089 24.289,44.271 27.972,100.037 1.573,151.736 -16.62,35.614 -33.24,68.855 -30.866,109.218 9.497,132.96 42.737,263.547 111.592,379.887 5.018,8.027 4.084,15.628 0.095,22.268 2.545,-0.674 5.07,-1.338 7.621,-2.016 25.689,-6.838 32.765,-13.866 34.142,-18.567 2.447,-8.238 -8.83,-20.703 -20.774,-33.904 z M 656.167,964.556 c -57.326,13.391 -117.148,27.143 -181.399,41.857 -54.229,12.442 -103.946,-79.657 -124.27,-116.601 -46.584,-84.62 -75.004,-178.975 -96.182,-272.76 -4.44,-19.588 -6.791,-39.698 -9.901,-59.546 -3.11,-19.897 -5.889,-54.395 -0.689,-74.221 0.689,-2.588 -50.288,-59.096 -61.732,-80.465 -4.132,-7.764 -7.859,-15.907 -10.899,-24.337 -5.626,-19.16 -7.265,-37.727 -4.891,-55.653 2.185,-11.8 5.817,-23.576 9.902,-34.593 0.641,-1.425 1.33,-2.873 2.018,-4.298 4.106,-7.384 8.571,-14.388 12.868,-20.752 0.308,-0.451 0.499,-0.902 0.594,-1.376 29.548,-40.558 76.108,-64.516 117.167,-79.77 -19.731,11.404 -37.644,25.71 -52.349,45.01 -61.732,83.1 -56.983,206.564 35.614,261.172 12.712,133.48 25.432,278.3 112.379,385.541 -4.21,1.301 -7.22,7.126 -3.422,11.63 14.697,17.404 28.182,36.114 43.615,52.781 3.253,3.515 8.762,-0.189 7.716,-4.487 -1.541,-6.286 -4.228,-12.208 -7.598,-17.854 59.625,52.509 135.743,57.056 211.459,48.722 z M 306.906,669.121 c -2.992,-12.488 -4.535,-25.429 -5.675,-38.202 -0.736,-8.429 -14.008,-8.477 -13.224,0 1.353,14.744 3.324,28.587 9.687,42.096 2.492,5.318 10.494,1.472 9.212,-3.894 z m 294.057,113.254 c -10.779,-18.188 -21.559,-36.636 -30.462,-55.843 -0.463,-0.996 -0.923,-1.996 -1.381,-3.003 -6.616,-14.531 -12.576,-30.065 -12.865,-46.098 -9.647,-1.05 -19.204,-2.388 -28.672,-3.932 -7.217,-1.178 -14.386,-2.465 -21.473,-3.902 -18.094,-3.69 -37.169,-8.956 -55.919,-15.992 24.165,22.528 52.488,40.909 82.805,55.163 5.516,23.244 14.763,45.818 27.319,66.746 28.523,45.302 79.574,82.293 130.529,83.346 -39.464,-11.325 -69.316,-41.776 -89.881,-76.485 z m 393.088,191.131 c 4.606,-8.167 10.732,-18.734 13.723,-28.919 -53.992,13.652 -108.221,26.853 -162.378,39.699 1.842,5.226 0.301,12.467 -1.49,18.185 27.449,-3.871 54.508,-8.266 81.312,-13.016 1.371,-0.886 3.088,-1.149 4.677,-0.841 20.857,-3.732 41.572,-7.663 62.205,-11.72 0.657,-1.131 1.313,-2.264 1.951,-3.388 z m -165.942,31.114 c 1.507,-3.588 2.85,-7.245 3.682,-11.027 0.452,-1.995 0.499,-4.132 0.618,-6.221 -53.066,12.536 -106.06,24.764 -158.699,36.802 0.825,4.052 0.468,8.521 -0.372,12.962 47.899,-12.997 96.139,-24.806 145.774,-31.316 3.011,-0.385 5.996,-0.803 8.997,-1.2 z m -252.67,41.919 c -38.867,8.833 -77.735,17.665 -116.578,26.568 -6.767,1.544 -14.578,3.325 -22.627,3.586 l -5.787,16.429 c 78.138,-8.551 152.778,-31.153 227.988,-51.905 0.839,-4.775 1.614,-9.67 3,-14.241 -28.8,6.576 -57.481,13.081 -85.996,19.563 z m -153.285,28.752 c -11.42,-2.968 -20.704,-10.613 -28.539,-17.545 -19.255,-17.071 -37.062,-36.09 -53.635,-57.363 -4.498,4.751 -10.019,8.824 -16.046,12.03 26.627,30.208 57.929,56.567 94.96,77.628 l 5.539,-14.252 c -0.759,-0.141 -1.519,-0.308 -2.279,-0.498 z M 275.732,893.824 c -6.308,5.807 -13.243,10.296 -20.717,13.653 16.554,33.731 36.18,65.442 59.656,94.042 6.248,-3.16 12.28,-6.932 18.613,-9.898 -21.131,-28.491 -40.173,-60.877 -57.552,-97.797 z m -33.977,-83.741 c -6.173,-17.594 -11.919,-35.354 -17.309,-53.232 -6.089,4.285 -13.329,7.175 -20.675,9.614 5.975,22.434 12.688,44.664 20.31,66.45 2.563,-0.781 5.152,-1.431 7.796,-1.797 4.678,-0.641 8.666,4.463 4.867,8.382 -2.404,2.475 -5.18,4.396 -8.18,5.91 6.212,16.819 13.005,33.334 20.446,49.439 7.524,-3.218 14.814,-7.017 22.329,-10.548 -10.423,-22.981 -20.253,-47.65 -29.584,-74.218 z M 198.78,657.439 c -4.737,4.914 -10.333,9.83 -16.327,14.005 5.057,26.74 10.807,53.68 17.535,80.414 6.717,-3.236 13.613,-6.136 20.588,-8.042 -8.262,-28.515 -15.527,-57.339 -21.796,-86.377 z M 181.093,555.653 c -2.161,-16.454 -3.396,-34.071 -3.989,-44.874 -0.356,0.19 -0.713,0.403 -1.069,0.57 -0.071,0.094 -0.143,0.189 -0.213,0.284 -4.606,4.889 -13.115,7.85 -21.708,8.879 18.585,38.441 15.105,82.612 23.94,126.788 0.443,2.518 0.892,5.041 1.345,7.565 5.386,-3.488 10.867,-7.405 16.653,-10.437 -6.033,-29.417 -11.042,-59.049 -14.959,-88.775 z M 115.206,424.022 c -2.381,3.264 -4.968,6.468 -7.784,9.396 11.339,23.825 24.342,47.146 37.135,69.726 9.284,-0.783 18.525,-1.97 27.417,-4.523 -11.871,-11.276 -37.204,-37.702 -56.768,-74.599 z m -7.005,-13.106 c 0.19,-1.14 -0.308,-2.279 -0.784,-3.348 -22.556,-49.551 -23.315,-106.13 -0.57,-155.73 -7.645,7.265 -17.783,15.861 -23.838,28.301 -3.935,8.075 -7.108,15.916 -9.655,23.509 -0.705,38.739 10.717,77.264 27.156,114.687 1.988,-1.579 3.865,-3.087 5.364,-4.332 1.022,-0.831 2.09,-1.78 2.327,-3.087 z"
   id="path7" />
</g>
</svg>
